<?xml version="1.0" encoding="UTF-8"?>
<svg version="1.1" xmlns="http://www.w3.org/2000/svg" width="512" height="512">
<path d="M0 0 C16.92252899 14.70085619 27.02227274 34.51112806 29.984375 56.6171875 C31.61241475 80.34650166 26.40269701 103.06926195 10.984375 121.6171875 C10.26121094 122.49117187 9.53804688 123.36515625 8.79296875 124.265625 C3.99939498 129.81783392 -1.17293319 134.20933522 -7.015625 138.6171875 C-6.13414795 138.63700684 -5.2526709 138.65682617 -4.34448242 138.67724609 C-1.02116207 138.75612892 2.30177448 138.84283964 5.62475586 138.93457031 C7.05306348 138.97245731 8.48145353 139.00737399 9.90991211 139.0390625 C26.93522129 139.42125113 41.06926697 141.29208531 53.86328125 153.39453125 C60.60031024 160.50988152 65.12337839 169.68387213 65.09790039 179.56933594 C65.09782486 180.55005066 65.09774933 181.53076538 65.09767151 182.54119873 C65.09251022 183.59236877 65.08734894 184.64353882 65.08203125 185.7265625 C65.07990883 187.34948212 65.07990883 187.34948212 65.07774353 189.00518799 C65.07214818 192.459216 65.0595965 195.91317909 65.046875 199.3671875 C65.0418594 201.70963448 65.0372966 204.05208248 65.03320312 206.39453125 C65.02218028 212.1354388 65.00544674 217.87630851 64.984375 223.6171875 C66.97693398 222.60137312 68.95317114 221.55349577 70.921875 220.4921875 C72.02402344 219.91210938 73.12617188 219.33203125 74.26171875 218.734375 C77.67914007 216.07692542 77.38787493 214.75507088 77.984375 210.6171875 C81.63410867 206.888168 86.28054792 204.74109148 90.8984375 202.421875 C91.66179916 202.03256302 92.42516083 201.64325104 93.21165466 201.24214172 C95.67499141 199.98702974 98.14215894 198.7396536 100.609375 197.4921875 C103.14311554 196.20325832 105.67581809 194.91230586 108.20845032 193.62120056 C109.86721067 192.77571872 111.5262963 191.93087471 113.18571472 191.08668518 C119.16624411 188.04265263 125.11797075 184.94817923 131.046875 181.8046875 C131.77285889 181.42441406 132.49884277 181.04414063 133.24682617 180.65234375 C136.31409146 179.0453864 139.34479867 177.41105192 142.3515625 175.69140625 C149.3110467 171.83978332 155.02606066 170.31143861 162.984375 171.6171875 C168.87333688 173.37508657 172.53743796 176.4960239 175.984375 181.6171875 C178.47755174 186.85074683 179.3602273 191.44599986 179.36532593 197.28295898 C179.3700059 198.01102218 179.37468587 198.73908537 179.37950766 199.48921108 C179.39138314 201.90575838 179.38203012 204.3217307 179.37255859 206.73828125 C179.37662762 208.48015674 179.38197136 210.22202965 179.38848877 211.96389771 C179.4021288 216.67875155 179.39687742 221.39340776 179.38735151 226.10826492 C179.37973774 231.05061614 179.38680529 235.99295083 179.39151001 240.93530273 C179.39696256 249.23391751 179.38978909 257.5324521 179.37548828 265.83105469 C179.35916275 275.41505199 179.36445161 284.9988578 179.3809675 294.58285046 C179.39459663 302.82257567 179.39649504 311.06224336 179.38865149 319.3019762 C179.38398283 324.21834767 179.38332792 329.13462924 179.39326096 334.05099487 C179.40194911 338.67382615 179.39587498 343.29641136 179.37857819 347.91921616 C179.37462321 349.61226875 179.37573039 351.30534217 179.38236618 352.99838638 C179.39061124 355.31633921 179.38022535 357.63351235 179.36532593 359.95141602 C179.36419485 361.24628433 179.36306377 362.54115265 179.36189842 363.8752594 C178.72227406 370.21507367 176.67539281 376.1667347 171.984375 380.6171875 C165.44698599 384.95945323 159.81298028 386.6360871 151.984375 385.6171875 C148.47995862 384.50211439 145.30594146 382.93421571 142.046875 381.2421875 C141.1379248 380.78956543 140.22897461 380.33694336 139.29248047 379.87060547 C136.51053198 378.47600827 133.74572875 377.05207224 130.984375 375.6171875 C130.17758301 375.20082031 129.37079102 374.78445313 128.53955078 374.35546875 C124.66717193 372.35159173 120.81057414 370.32014943 116.96484375 368.265625 C113.33508255 366.32749587 109.68999764 364.42166499 106.03515625 362.53125 C105.01921387 362.00515137 104.00327148 361.47905273 102.95654297 360.93701172 C100.99708266 359.92338905 99.03654522 358.91184468 97.07470703 357.90283203 C79.90635669 349.00016004 79.90635669 349.00016004 76.984375 344.6171875 C76.984375 342.9671875 76.984375 341.3171875 76.984375 339.6171875 C73.024375 337.6371875 69.064375 335.6571875 64.984375 333.6171875 C65.00532227 335.04393799 65.02626953 336.47068848 65.04785156 337.94067383 C65.12070901 343.27634491 65.16634043 348.61197275 65.20410156 353.94799805 C65.22411327 356.24950577 65.25133131 358.55096332 65.28613281 360.85229492 C65.33511199 364.17639612 65.35744901 367.49982026 65.375 370.82421875 C65.40596771 372.34678032 65.40596771 372.34678032 65.43756104 373.90010071 C65.44138269 386.29875935 60.66343436 396.26364185 52.3984375 405.36328125 C44.24200088 413.02237418 34.20188559 416.78096207 23.21429443 416.73744202 C22.0331048 416.73872365 22.0331048 416.73872365 20.82805276 416.74003118 C18.18710324 416.74167945 15.54621711 416.73617527 12.90527344 416.73071289 C11.01308188 416.73043085 9.12089022 416.73058908 7.22869873 416.7311554 C2.0885941 416.73144272 -3.05148728 416.72555644 -8.19158649 416.71858144 C-13.56211034 416.71233713 -18.9326347 416.71174325 -24.30316162 416.71055603 C-34.47449937 416.7074459 -44.64582639 416.69923678 -54.81715941 416.68920654 C-66.39623236 416.67803555 -77.97530581 416.67253246 -89.5543828 416.66751111 C-113.37480282 416.65705392 -137.19521331 416.63946061 -161.015625 416.6171875 C-161.45430908 417.76985107 -161.45430908 417.76985107 -161.90185547 418.94580078 C-163.25251083 422.18536041 -165.05923729 424.66291133 -167.140625 427.4921875 C-170.51194519 432.10905353 -173.81969224 436.76159562 -177.05859375 441.47265625 C-177.76290527 442.49568848 -178.4672168 443.5187207 -179.19287109 444.57275391 C-180.59670152 446.61541867 -181.9968786 448.6605999 -183.39306641 450.70849609 C-192.22007263 463.51601114 -192.22007263 463.51601114 -198.015625 465.6171875 C-202.67132845 466.34517022 -206.15934187 466.04532906 -210.390625 463.9296875 C-213.70077166 461.01360592 -215.66511391 458.40215726 -216.52514648 454.02246094 C-217.02684571 445.96431294 -217.13289902 437.94003554 -217.078125 429.8671875 C-217.07361328 428.58585937 -217.06910156 427.30453125 -217.06445312 425.984375 C-217.0528022 422.86192819 -217.03644525 419.73958432 -217.015625 416.6171875 C-217.83057938 416.62606995 -218.64553375 416.63495239 -219.48518372 416.644104 C-227.20769969 416.72462705 -234.93000888 416.78534185 -242.6528368 416.82443619 C-246.62217597 416.84521149 -250.591165 416.87334193 -254.56030273 416.91894531 C-258.39882989 416.96276639 -262.23702266 416.9864 -266.07578087 416.99669647 C-267.53206322 417.00402346 -268.98832961 417.01832935 -270.44446754 417.04010773 C-285.36623861 417.25417725 -296.53823913 413.53325553 -307.703125 403.4921875 C-316.38012701 394.37124585 -319.33844158 382.24841323 -319.27632141 370.02287292 C-319.28014696 369.20693942 -319.28397251 368.39100591 -319.28791398 367.55034715 C-319.29815396 364.84233529 -319.29426909 362.13453905 -319.2902832 359.42651367 C-319.2946347 357.4742361 -319.29981931 355.52196024 -319.30577087 353.56968689 C-319.31912587 348.28443935 -319.31974337 342.99926348 -319.31720757 337.71400237 C-319.31613536 333.29327711 -319.32102771 328.87256621 -319.325813 324.45184404 C-319.33689636 314.01728282 -319.33735235 303.58275761 -319.33129883 293.14819336 C-319.32526111 282.40376897 -319.33756766 271.65947561 -319.3588689 260.91507357 C-319.37651551 251.67230974 -319.38248138 242.4295875 -319.37923115 233.18680745 C-319.37742283 227.67451717 -319.38000926 222.16232034 -319.39394569 216.65004539 C-319.40656903 211.46333747 -319.40453741 206.27683294 -319.39153481 201.09012794 C-319.38917917 199.19395502 -319.39186711 197.29776759 -319.40015793 195.40161133 C-319.45911243 180.86226732 -318.52621473 168.9381485 -310.015625 156.6171875 C-309.149375 155.286875 -309.149375 155.286875 -308.265625 153.9296875 C-298.24208817 143.62771909 -286.32240814 140.18987653 -272.328125 139.3671875 C-271.23306641 139.28984375 -270.13800781 139.2125 -269.00976562 139.1328125 C-266.34567052 138.94667485 -263.6815193 138.77504284 -261.015625 138.6171875 C-261.8187915 137.94079224 -261.8187915 137.94079224 -262.63818359 137.25073242 C-274.28095633 127.2876378 -283.07918342 113.02803505 -285.015625 97.6171875 C-286.40990189 75.69467318 -283.21746479 57.11050355 -268.3828125 40.078125 C-255.01421398 26.18007703 -237.23935884 18.70240745 -218.078125 18.1171875 C-197.89584301 18.73057058 -180.38237851 26.46261003 -166.390625 41.2421875 C-157.16862159 52.38271645 -150.95115538 66.11646658 -150.015625 80.6171875 C-149.9640625 81.39835937 -149.9125 82.17953125 -149.859375 82.984375 C-149.17507193 102.20188613 -155.98193858 119.54288739 -169.015625 133.6171875 C-170.665625 135.2671875 -172.315625 136.9171875 -174.015625 138.6171875 C-151.905625 138.6171875 -129.795625 138.6171875 -107.015625 138.6171875 C-110.315625 135.9771875 -113.615625 133.3371875 -117.015625 130.6171875 C-128.64931048 120.25593637 -136.15459951 107.2965219 -141.015625 92.6171875 C-141.35464844 91.65425781 -141.69367188 90.69132812 -142.04296875 89.69921875 C-146.83161805 73.3471951 -145.6124669 53.58194964 -140.015625 37.6171875 C-139.65339844 36.55757812 -139.29117188 35.49796875 -138.91796875 34.40625 C-134.40865669 22.51389482 -126.87153204 12.62578259 -118.015625 3.6171875 C-117.32984375 2.91851562 -116.6440625 2.21984375 -115.9375 1.5 C-83.64509407 -29.23758638 -33.48337177 -26.45706837 0 0 Z " fill="#FDFCFD" transform="translate(326.015625,33.3828125)"/>
<path d="M0 0 C16.92252899 14.70085619 27.02227274 34.51112806 29.984375 56.6171875 C31.61241475 80.34650166 26.40269701 103.06926195 10.984375 121.6171875 C10.26121094 122.49117187 9.53804688 123.36515625 8.79296875 124.265625 C3.99939498 129.81783392 -1.17293319 134.20933522 -7.015625 138.6171875 C-6.13414795 138.63700684 -5.2526709 138.65682617 -4.34448242 138.67724609 C-1.02116207 138.75612892 2.30177448 138.84283964 5.62475586 138.93457031 C7.05306348 138.97245731 8.48145353 139.00737399 9.90991211 139.0390625 C26.93522129 139.42125113 41.06926697 141.29208531 53.86328125 153.39453125 C60.60031024 160.50988152 65.12337839 169.68387213 65.09790039 179.56933594 C65.09782486 180.55005066 65.09774933 181.53076538 65.09767151 182.54119873 C65.09251022 183.59236877 65.08734894 184.64353882 65.08203125 185.7265625 C65.07990883 187.34948212 65.07990883 187.34948212 65.07774353 189.00518799 C65.07214818 192.459216 65.0595965 195.91317909 65.046875 199.3671875 C65.0418594 201.70963448 65.0372966 204.05208248 65.03320312 206.39453125 C65.02218028 212.1354388 65.00544674 217.87630851 64.984375 223.6171875 C66.97693398 222.60137312 68.95317114 221.55349577 70.921875 220.4921875 C72.02402344 219.91210938 73.12617188 219.33203125 74.26171875 218.734375 C77.67914007 216.07692542 77.38787493 214.75507088 77.984375 210.6171875 C81.63410867 206.888168 86.28054792 204.74109148 90.8984375 202.421875 C91.66179916 202.03256302 92.42516083 201.64325104 93.21165466 201.24214172 C95.67499141 199.98702974 98.14215894 198.7396536 100.609375 197.4921875 C103.14311554 196.20325832 105.67581809 194.91230586 108.20845032 193.62120056 C109.86721067 192.77571872 111.5262963 191.93087471 113.18571472 191.08668518 C119.16624411 188.04265263 125.11797075 184.94817923 131.046875 181.8046875 C131.77285889 181.42441406 132.49884277 181.04414063 133.24682617 180.65234375 C136.31409146 179.0453864 139.34479867 177.41105192 142.3515625 175.69140625 C149.3110467 171.83978332 155.02606066 170.31143861 162.984375 171.6171875 C168.87333688 173.37508657 172.53743796 176.4960239 175.984375 181.6171875 C178.47755174 186.85074683 179.3602273 191.44599986 179.36532593 197.28295898 C179.3700059 198.01102218 179.37468587 198.73908537 179.37950766 199.48921108 C179.39138314 201.90575838 179.38203012 204.3217307 179.37255859 206.73828125 C179.37662762 208.48015674 179.38197136 210.22202965 179.38848877 211.96389771 C179.4021288 216.67875155 179.39687742 221.39340776 179.38735151 226.10826492 C179.37973774 231.05061614 179.38680529 235.99295083 179.39151001 240.93530273 C179.39696256 249.23391751 179.38978909 257.5324521 179.37548828 265.83105469 C179.35916275 275.41505199 179.36445161 284.9988578 179.3809675 294.58285046 C179.39459663 302.82257567 179.39649504 311.06224336 179.38865149 319.3019762 C179.38398283 324.21834767 179.38332792 329.13462924 179.39326096 334.05099487 C179.40194911 338.67382615 179.39587498 343.29641136 179.37857819 347.91921616 C179.37462321 349.61226875 179.37573039 351.30534217 179.38236618 352.99838638 C179.39061124 355.31633921 179.38022535 357.63351235 179.36532593 359.95141602 C179.36419485 361.24628433 179.36306377 362.54115265 179.36189842 363.8752594 C178.72227406 370.21507367 176.67539281 376.1667347 171.984375 380.6171875 C165.44698599 384.95945323 159.81298028 386.6360871 151.984375 385.6171875 C148.47995862 384.50211439 145.30594146 382.93421571 142.046875 381.2421875 C141.1379248 380.78956543 140.22897461 380.33694336 139.29248047 379.87060547 C136.51053198 378.47600827 133.74572875 377.05207224 130.984375 375.6171875 C130.17758301 375.20082031 129.37079102 374.78445313 128.53955078 374.35546875 C124.66717193 372.35159173 120.81057414 370.32014943 116.96484375 368.265625 C113.33508255 366.32749587 109.68999764 364.42166499 106.03515625 362.53125 C105.01921387 362.00515137 104.00327148 361.47905273 102.95654297 360.93701172 C100.99708266 359.92338905 99.03654522 358.91184468 97.07470703 357.90283203 C79.90635669 349.00016004 79.90635669 349.00016004 76.984375 344.6171875 C76.984375 342.9671875 76.984375 341.3171875 76.984375 339.6171875 C73.024375 337.6371875 69.064375 335.6571875 64.984375 333.6171875 C65.00532227 335.04393799 65.02626953 336.47068848 65.04785156 337.94067383 C65.12070901 343.27634491 65.16634043 348.61197275 65.20410156 353.94799805 C65.22411327 356.24950577 65.25133131 358.55096332 65.28613281 360.85229492 C65.33511199 364.17639612 65.35744901 367.49982026 65.375 370.82421875 C65.40596771 372.34678032 65.40596771 372.34678032 65.43756104 373.90010071 C65.44138269 386.29875935 60.66343436 396.26364185 52.3984375 405.36328125 C44.24200088 413.02237418 34.20188559 416.78096207 23.21429443 416.73744202 C22.0331048 416.73872365 22.0331048 416.73872365 20.82805276 416.74003118 C18.18710324 416.74167945 15.54621711 416.73617527 12.90527344 416.73071289 C11.01308188 416.73043085 9.12089022 416.73058908 7.22869873 416.7311554 C2.0885941 416.73144272 -3.05148728 416.72555644 -8.19158649 416.71858144 C-13.56211034 416.71233713 -18.9326347 416.71174325 -24.30316162 416.71055603 C-34.47449937 416.7074459 -44.64582639 416.69923678 -54.81715941 416.68920654 C-66.39623236 416.67803555 -77.97530581 416.67253246 -89.5543828 416.66751111 C-113.37480282 416.65705392 -137.19521331 416.63946061 -161.015625 416.6171875 C-161.45430908 417.76985107 -161.45430908 417.76985107 -161.90185547 418.94580078 C-163.25251083 422.18536041 -165.05923729 424.66291133 -167.140625 427.4921875 C-170.51194519 432.10905353 -173.81969224 436.76159562 -177.05859375 441.47265625 C-177.76290527 442.49568848 -178.4672168 443.5187207 -179.19287109 444.57275391 C-180.59670152 446.61541867 -181.9968786 448.6605999 -183.39306641 450.70849609 C-192.22007263 463.51601114 -192.22007263 463.51601114 -198.015625 465.6171875 C-202.67132845 466.34517022 -206.15934187 466.04532906 -210.390625 463.9296875 C-213.70077166 461.01360592 -215.66511391 458.40215726 -216.52514648 454.02246094 C-217.02684571 445.96431294 -217.13289902 437.94003554 -217.078125 429.8671875 C-217.07361328 428.58585937 -217.06910156 427.30453125 -217.06445312 425.984375 C-217.0528022 422.86192819 -217.03644525 419.73958432 -217.015625 416.6171875 C-217.83057938 416.62606995 -218.64553375 416.63495239 -219.48518372 416.644104 C-227.20769969 416.72462705 -234.93000888 416.78534185 -242.6528368 416.82443619 C-246.62217597 416.84521149 -250.591165 416.87334193 -254.56030273 416.91894531 C-258.39882989 416.96276639 -262.23702266 416.9864 -266.07578087 416.99669647 C-267.53206322 417.00402346 -268.98832961 417.01832935 -270.44446754 417.04010773 C-285.36623861 417.25417725 -296.53823913 413.53325553 -307.703125 403.4921875 C-316.38012701 394.37124585 -319.33844158 382.24841323 -319.27632141 370.02287292 C-319.28014696 369.20693942 -319.28397251 368.39100591 -319.28791398 367.55034715 C-319.29815396 364.84233529 -319.29426909 362.13453905 -319.2902832 359.42651367 C-319.2946347 357.4742361 -319.29981931 355.52196024 -319.30577087 353.56968689 C-319.31912587 348.28443935 -319.31974337 342.99926348 -319.31720757 337.71400237 C-319.31613536 333.29327711 -319.32102771 328.87256621 -319.325813 324.45184404 C-319.33689636 314.01728282 -319.33735235 303.58275761 -319.33129883 293.14819336 C-319.32526111 282.40376897 -319.33756766 271.65947561 -319.3588689 260.91507357 C-319.37651551 251.67230974 -319.38248138 242.4295875 -319.37923115 233.18680745 C-319.37742283 227.67451717 -319.38000926 222.16232034 -319.39394569 216.65004539 C-319.40656903 211.46333747 -319.40453741 206.27683294 -319.39153481 201.09012794 C-319.38917917 199.19395502 -319.39186711 197.29776759 -319.40015793 195.40161133 C-319.45911243 180.86226732 -318.52621473 168.9381485 -310.015625 156.6171875 C-309.149375 155.286875 -309.149375 155.286875 -308.265625 153.9296875 C-298.24208817 143.62771909 -286.32240814 140.18987653 -272.328125 139.3671875 C-271.23306641 139.28984375 -270.13800781 139.2125 -269.00976562 139.1328125 C-266.34567052 138.94667485 -263.6815193 138.77504284 -261.015625 138.6171875 C-261.8187915 137.94079224 -261.8187915 137.94079224 -262.63818359 137.25073242 C-274.28095633 127.2876378 -283.07918342 113.02803505 -285.015625 97.6171875 C-286.40990189 75.69467318 -283.21746479 57.11050355 -268.3828125 40.078125 C-255.01421398 26.18007703 -237.23935884 18.70240745 -218.078125 18.1171875 C-197.89584301 18.73057058 -180.38237851 26.46261003 -166.390625 41.2421875 C-157.16862159 52.38271645 -150.95115538 66.11646658 -150.015625 80.6171875 C-149.9640625 81.39835937 -149.9125 82.17953125 -149.859375 82.984375 C-149.17507193 102.20188613 -155.98193858 119.54288739 -169.015625 133.6171875 C-170.665625 135.2671875 -172.315625 136.9171875 -174.015625 138.6171875 C-151.905625 138.6171875 -129.795625 138.6171875 -107.015625 138.6171875 C-110.315625 135.9771875 -113.615625 133.3371875 -117.015625 130.6171875 C-128.64931048 120.25593637 -136.15459951 107.2965219 -141.015625 92.6171875 C-141.35464844 91.65425781 -141.69367188 90.69132812 -142.04296875 89.69921875 C-146.83161805 73.3471951 -145.6124669 53.58194964 -140.015625 37.6171875 C-139.65339844 36.55757812 -139.29117188 35.49796875 -138.91796875 34.40625 C-134.40865669 22.51389482 -126.87153204 12.62578259 -118.015625 3.6171875 C-117.32984375 2.91851562 -116.6440625 2.21984375 -115.9375 1.5 C-83.64509407 -29.23758638 -33.48337177 -26.45706837 0 0 Z M-297.390625 162.3671875 C-297.99648438 162.96015625 -298.60234375 163.553125 -299.2265625 164.1640625 C-303.8446754 170.49632211 -305.61340238 176.70191794 -305.5302887 184.45274353 C-305.53723422 185.29458948 -305.54417975 186.13643543 -305.55133575 187.00379187 C-305.56950187 189.79959813 -305.55937071 192.59454581 -305.54907227 195.39038086 C-305.55613599 197.40502045 -305.56488291 199.41965474 -305.57518005 201.4342804 C-305.59763259 206.88887777 -305.59474394 212.3431844 -305.58585858 217.79781032 C-305.58073922 222.35791659 -305.58804896 226.91796868 -305.59533066 231.47806937 C-305.61231651 242.23860182 -305.60877695 252.99899241 -305.59204102 263.75952148 C-305.5751189 274.84717459 -305.59095866 285.93443401 -305.6232639 297.02204412 C-305.64998411 306.55524125 -305.65722926 316.088316 -305.64874882 325.6215468 C-305.643827 331.30932483 -305.64599515 336.99686602 -305.66653633 342.68461418 C-305.6849316 348.0339591 -305.67888739 353.38273895 -305.65433693 358.73205376 C-305.64934138 360.69034038 -305.65278601 362.64867034 -305.66548538 364.60692215 C-305.73877535 376.88346985 -305.19918858 385.7523955 -296.890625 395.4296875 C-287.32426491 404.07748314 -276.51928002 404.35800664 -264.31640625 404.32421875 C-262.62817112 404.33735801 -260.93995164 404.352669 -259.25175476 404.37004089 C-254.84428497 404.40964375 -250.43722872 404.42006524 -246.02960205 404.42407227 C-241.51765595 404.4334507 -237.00594814 404.47089331 -232.49414062 404.50585938 C-223.66796402 404.57018309 -214.84202502 404.60362958 -206.015625 404.6171875 C-205.10018657 407.3635028 -204.83822644 409.23927318 -204.71850586 412.08862305 C-204.6585569 413.43968391 -204.6585569 413.43968391 -204.59739685 414.81803894 C-204.55881058 415.78687515 -204.5202243 416.75571136 -204.48046875 417.75390625 C-204.41600304 419.24577202 -204.41600304 419.24577202 -204.35023499 420.76777649 C-204.21380826 423.9465894 -204.08339708 427.12561699 -203.953125 430.3046875 C-203.86172399 432.45900121 -203.76993198 434.61329836 -203.67773438 436.76757812 C-203.45249268 442.05059753 -203.23219031 447.33380571 -203.015625 452.6171875 C-202.355625 452.6171875 -201.695625 452.6171875 -201.015625 452.6171875 C-199.76140974 451.18776295 -199.76140974 451.18776295 -198.5390625 449.26953125 C-198.04083984 448.52985107 -197.54261719 447.7901709 -197.02929688 447.02807617 C-196.48853516 446.21185791 -195.94777344 445.39563965 -195.390625 444.5546875 C-194.22227699 442.81969071 -193.05296111 441.0853454 -191.8828125 439.3515625 C-191.25987305 438.42537109 -190.63693359 437.49917969 -189.99511719 436.54492188 C-186.54174759 431.43727409 -183.03066696 426.37000519 -179.515625 421.3046875 C-178.8457959 420.33329834 -178.1759668 419.36190918 -177.48583984 418.36108398 C-176.84598145 417.43884033 -176.20612305 416.51659668 -175.546875 415.56640625 C-174.98548828 414.75518311 -174.42410156 413.94395996 -173.84570312 413.1081543 C-173.24177734 412.28613525 -172.63785156 411.46411621 -172.015625 410.6171875 C-170.9670559 409.07778724 -170.9670559 409.07778724 -169.89730358 407.50728798 C-167.62646971 404.82012525 -167.08544486 404.63146269 -163.38293171 403.87445641 C-161.94843864 403.84723268 -160.51308988 403.85287553 -159.07868958 403.88461304 C-158.2851804 403.8782252 -157.49167122 403.87183736 -156.67411631 403.86525595 C-154.01740381 403.85103807 -151.36287417 403.87950698 -148.70629883 403.90771484 C-146.80062462 403.90609298 -144.89495108 403.90177893 -142.98928833 403.89497375 C-138.88577139 403.8859515 -134.78287681 403.89569675 -130.67942238 403.91987228 C-124.18618531 403.9577077 -117.69342894 403.95211326 -111.20011902 403.94033813 C-98.58159926 403.92348249 -85.96336799 403.95158171 -73.34489441 403.98375702 C-57.30145344 404.02221673 -41.25806133 404.03832545 -25.21458453 404.01855242 C-18.76520806 404.01203264 -12.31631299 404.0262651 -5.86701071 404.05700278 C-1.84581313 404.07240755 2.17526497 404.07141395 6.19648361 404.06625938 C8.0548086 404.06731712 9.91314487 404.07521541 11.77140617 404.0906353 C23.76217831 404.18587778 34.18639844 403.97508542 43.453125 395.3203125 C49.85315055 388.20191674 52.28685566 380.7934991 52.26525879 371.26974487 C52.27120103 370.44412398 52.27714328 369.6185031 52.28326559 368.76786339 C52.30056962 366.00910054 52.30365008 363.25051198 52.30664062 360.49169922 C52.31590204 358.51030611 52.32595205 356.52891656 52.33673096 354.54753113 C52.36293649 349.16915437 52.37586082 343.79082751 52.38475227 338.41239691 C52.39062128 335.04900413 52.39883238 331.68562488 52.40776062 328.32223892 C52.43510084 317.7898143 52.45443825 307.25742071 52.4621644 296.72496307 C52.47112041 284.58397835 52.50619568 272.44344457 52.56416559 260.30259693 C52.60746342 250.90702776 52.62757641 241.51158516 52.63024664 232.11591733 C52.63233837 226.50954467 52.6440592 220.90359619 52.67988586 215.29732895 C52.71295867 210.01939895 52.71710548 204.74220942 52.69960785 199.46421242 C52.69807292 197.53415881 52.70667573 195.60406448 52.72652435 193.67411232 C52.84170517 181.77029081 52.39498126 171.74707283 43.98911285 162.39805412 C35.89327611 154.46425206 27.10083559 153.02593036 16.12464905 153.1025238 C14.84994655 153.09557828 13.57524404 153.08863275 12.26191419 153.08147675 C8.74412814 153.06292391 5.22676518 153.06912862 1.70896208 153.07962978 C-2.09277932 153.08664286 -5.89443564 153.07060793 -9.69615173 153.05763245 C-17.13593473 153.03602238 -24.57556458 153.03611163 -32.01536863 153.04425799 C-38.06390113 153.05056519 -44.11238906 153.04941436 -50.1609211 153.04298592 C-51.4536302 153.04163343 -51.4536302 153.04163343 -52.77245464 153.04025363 C-54.52336753 153.03840237 -56.27428041 153.03653981 -58.02519328 153.03466607 C-74.43354716 153.01809802 -90.84181498 153.02679832 -107.25016368 153.04365165 C-122.25171913 153.0583476 -137.25307426 153.04371994 -152.25460391 153.01488148 C-167.67058815 152.98546772 -183.08648 152.97452098 -198.50249106 152.98406368 C-200.24716507 152.9850862 -201.9918391 152.98608081 -203.73651314 152.9870472 C-204.59485353 152.98752359 -205.45319392 152.98799998 -206.33754463 152.9884908 C-212.37582677 152.99065232 -218.41402117 152.98086481 -224.45228386 152.96627617 C-231.81534595 152.94873441 -239.17815272 152.94889653 -246.54120486 152.97162782 C-250.29548163 152.98275344 -254.04930889 152.98597126 -257.80356598 152.96732712 C-261.87905063 152.94734867 -265.95344486 152.96634401 -270.02891541 152.98899841 C-271.20762378 152.97716268 -272.38633216 152.96532696 -273.60075897 152.95313257 C-282.87810891 153.05778724 -290.76031838 155.59211436 -297.390625 162.3671875 Z " fill="#F5821A" transform="translate(326.015625,33.3828125)"/>
<path d="M0 0 C6.45579992 3.83061987 9.54597284 9.37622932 11.5625 16.375 C11.94002342 20.1169281 11.94002342 20.1169281 11.94345093 24.04077148 C11.9481309 24.76883468 11.95281087 25.49689787 11.95763266 26.24702358 C11.96950814 28.66357088 11.96015512 31.0795432 11.95068359 33.49609375 C11.95475262 35.23796924 11.96009636 36.97984215 11.96661377 38.72171021 C11.9802538 43.43656405 11.97500242 48.15122026 11.96547651 52.86607742 C11.95786274 57.80842864 11.96493029 62.75076333 11.96963501 67.69311523 C11.97508756 75.99173001 11.96791409 84.2902646 11.95361328 92.58886719 C11.93728775 102.17286449 11.94257661 111.7566703 11.9590925 121.34066296 C11.97272163 129.58038817 11.97462004 137.82005586 11.96677649 146.0597887 C11.96210783 150.97616017 11.96145292 155.89244174 11.97138596 160.80880737 C11.98007411 165.43163865 11.97399998 170.05422386 11.95670319 174.67702866 C11.95274821 176.37008125 11.95385539 178.06315467 11.96049118 179.75619888 C11.96873624 182.07415171 11.95835035 184.39132485 11.94345093 186.70922852 C11.94231985 188.00409683 11.94118877 189.29896515 11.94002342 190.6330719 C11.30039906 196.97288617 9.25351781 202.9245472 4.5625 207.375 C-1.97488901 211.71726573 -7.60889472 213.3938996 -15.4375 212.375 C-18.94191638 211.25992689 -22.11593354 209.69202821 -25.375 208 C-26.2839502 207.54737793 -27.19290039 207.09475586 -28.12939453 206.62841797 C-30.91134302 205.23382077 -33.67614625 203.80988474 -36.4375 202.375 C-37.24429199 201.95863281 -38.05108398 201.54226563 -38.88232422 201.11328125 C-42.75470307 199.10940423 -46.61130086 197.07796193 -50.45703125 195.0234375 C-54.08679245 193.08530837 -57.73187736 191.17947749 -61.38671875 189.2890625 C-62.40266113 188.76296387 -63.41860352 188.23686523 -64.46533203 187.69482422 C-66.42479234 186.68120155 -68.38532978 185.66965718 -70.34716797 184.66064453 C-87.51551831 175.75797254 -87.51551831 175.75797254 -90.4375 171.375 C-90.4375 169.725 -90.4375 168.075 -90.4375 166.375 C-94.3975 164.395 -98.3575 162.415 -102.4375 160.375 C-102.7156172 146.15418233 -102.92879583 131.93401195 -103.05924606 117.7110281 C-103.12185958 111.10642346 -103.20676759 104.50367985 -103.34277344 97.90014648 C-103.47322614 91.52629921 -103.54492198 85.15424067 -103.57602692 78.77916145 C-103.59818976 76.34804169 -103.64147288 73.9170193 -103.70626068 71.48666191 C-104.19897481 52.23691394 -104.19897481 52.23691394 -99.72131348 47.50393677 C-96.42675781 45.70336914 -96.42675781 45.70336914 -93.11895752 44.62220764 C-92.23407654 44.21062912 -91.34919556 43.7990506 -90.4375 43.375 C-89.61650581 40.39206145 -89.61650581 40.39206145 -89.4375 37.375 C-85.78776633 33.6459805 -81.14132708 31.49890398 -76.5234375 29.1796875 C-75.76007584 28.79037552 -74.99671417 28.40106354 -74.21022034 27.99995422 C-71.74688359 26.74484224 -69.27971606 25.4974661 -66.8125 24.25 C-64.27875946 22.96107082 -61.74605691 21.67011836 -59.21342468 20.37901306 C-57.55466433 19.53353122 -55.8955787 18.68868721 -54.23616028 17.84449768 C-48.25563089 14.80046513 -42.30390425 11.70599173 -36.375 8.5625 C-35.28602417 7.99208984 -35.28602417 7.99208984 -34.17504883 7.41015625 C-31.10778354 5.8031989 -28.07707633 4.16886442 -25.0703125 2.44921875 C-16.89650436 -2.07445369 -8.87726037 -3.93064437 0 0 Z " fill="#FDDBB8" transform="translate(493.4375,206.625)"/>
<path d="M0 0 C15.73960891 12.38025955 26.08154796 30.18371062 29 50 C30.83310359 70.3724467 24.98097623 90.27447451 12 106 C11.39542969 106.77859375 10.79085937 107.5571875 10.16796875 108.359375 C-0.82090212 121.7773647 -17.99032707 130.40708579 -35 133 C-54.9062696 134.86687273 -74.61145294 130.42270485 -90.5625 118 C-92.0627625 116.69044884 -93.5433714 115.35791934 -95 114 C-95.70382813 113.37480469 -96.40765625 112.74960938 -97.1328125 112.10546875 C-107.93599743 102.02112692 -114.41911831 88.17835586 -118 74 C-118.18433594 73.28328125 -118.36867187 72.5665625 -118.55859375 71.828125 C-121.6462135 52.04549934 -117.47229764 32.6117663 -106.015625 16.1484375 C-104.09083037 13.67903044 -102.09266865 11.32798882 -100 9 C-99.48179687 8.38898437 -98.96359375 7.77796875 -98.4296875 7.1484375 C-73.13756633 -20.68560539 -29.1873076 -21.73427952 0 0 Z " fill="#FDDBB8" transform="translate(314,41)"/>
<path d="M0 0 C5.58777906 5.39023131 7.70021267 11.42327258 7.859375 19.0546875 C7.75709195 28.08349146 5.93061693 34.32323769 -0.328125 40.9296875 C-5.35682695 45.80569607 -9.53810185 47.68067076 -16.55859375 47.64453125 C-20.10156488 47.55908663 -23.64053729 47.42969103 -27.18164062 47.28710938 C-39.79530376 46.99867648 -48.99336091 50.4478163 -58.13671875 59.08203125 C-64.88571772 66.23496033 -67.85921084 75.9420545 -67.73046875 85.640625 C-66.64689124 96.78163324 -61.56225943 105.29541981 -53.078125 112.3046875 C-43.66647567 119.72473313 -33.68402716 118.91375425 -22.25 118.84375 C-14.30351259 118.94287458 -8.02028592 119.75176511 -1.453125 124.4921875 C4.30629487 130.47494389 7.66732102 136.98811909 7.921875 145.3671875 C7.67844354 153.49171232 5.9221792 159.98170372 0.2734375 165.9921875 C-11.71620629 176.40852962 -30.79133589 174.38551814 -45.453125 173.4921875 C-67.60377625 170.89650555 -89.15163468 157.06902745 -103.015625 139.9921875 C-118.8441393 119.7314695 -124.77544259 94.88931495 -121.765625 69.4921875 C-117.9537345 46.01200089 -105.17103072 25.06154899 -86.453125 10.4921875 C-64.15076569 -5.38687179 -25.09948424 -17.88060603 0 0 Z " fill="#F5821A" transform="translate(178.453125,228.5078125)"/>
<path d="M0 0 C5.16799447 5.16799447 8.30109478 10.96347538 8.5 18.3125 C8.43895729 24.09629648 7.05920007 28.21616348 4.1875 33.1875 C3.82527344 33.826875 3.46304688 34.46625 3.08984375 35.125 C-0.1570214 40.23193366 -4.77376921 43.91342274 -10.59326172 45.74926758 C-13.22678165 46.26930809 -15.60181932 46.23065301 -18.28515625 46.14453125 C-19.35056641 46.12326172 -20.41597656 46.10199219 -21.51367188 46.08007812 C-23.72754259 46.02733629 -25.94116399 45.96253504 -28.15429688 45.88476562 C-38.85084692 45.71151616 -47.52859413 48.28193821 -55.80859375 55.19921875 C-61.69028385 61.03504772 -66.29902893 68.69115871 -67.24609375 76.984375 C-67.25786276 88.8946155 -65.54928984 99.33421963 -56.8125 108.1875 C-46.04339952 117.1278853 -35.39594572 117.62912125 -21.84960938 117.5390625 C-13.3480103 117.65388432 -6.29124186 119.00245552 0.09741211 124.97216797 C6.76465352 132.18604432 7.98848502 139.46446018 7.66015625 148.97265625 C7.11462487 155.80623456 4.13500718 160.44683543 -0.81640625 165.05078125 C-13.76194996 175.34334826 -33.7185572 173.58605537 -49.32226562 171.91943359 C-70.6596957 168.41116311 -91.94983222 153.01176916 -104.8125 136.1875 C-119.75911357 114.85099765 -124.43045181 91.06354363 -121.125 65.3125 C-118.15895754 49.20524167 -110.71777358 34.34514598 -99.8125 22.1875 C-99.00039062 21.28128906 -98.18828125 20.37507813 -97.3515625 19.44140625 C-90.54997243 12.25086895 -83.33456963 7.12488955 -74.8125 2.1875 C-73.41644531 1.33865234 -73.41644531 1.33865234 -71.9921875 0.47265625 C-50.45282588 -11.58570432 -21.02444447 -13.54908644 0 0 Z " fill="#F5821A" transform="translate(325.8125,229.8125)"/>
<path d="M0 0 C1.57817037 1.01776911 3.14224923 2.05791249 4.6875 3.125 C5.30109375 3.54136719 5.9146875 3.95773438 6.546875 4.38671875 C16.36662654 11.8866666 23.83325926 24.99726326 25.6875 37.125 C27.10441926 54.47128486 24.81845106 67.69370628 13.80078125 81.69921875 C5.25925806 91.50381376 -6.97154558 99.98916023 -20.3125 101.125 C-36.79981296 102.23709927 -51.41914352 98.57523931 -64.5 87.9375 C-74.72272903 78.34321743 -81.68749933 65.37091259 -82.55078125 51.21875 C-82.77782319 41.8072965 -82.29427098 33.83512401 -78.3125 25.125 C-77.961875 24.33996094 -77.61125 23.55492188 -77.25 22.74609375 C-70.92212978 10.11232509 -59.50988967 -0.01522824 -46.3125 -4.875 C-45.46300781 -5.23207031 -44.61351562 -5.58914062 -43.73828125 -5.95703125 C-29.08742809 -9.88285849 -12.98376345 -7.34200909 0 0 Z " fill="#FDDBB8" transform="translate(136.3125,72.875)"/>
<path d="M0 0 C2.9347997 2.86976258 3.42728573 5.90963404 3.59765625 9.81640625 C3.27891401 15.55376656 1.86305654 19.22324013 -2.46484375 23.12890625 C-6.22028546 25.72882744 -8.00242192 25.90054535 -12.546875 25.73828125 C-30.43386764 24.85998641 -30.43386764 24.85998641 -46.90234375 30.81640625 C-47.86785156 31.38617188 -48.83335938 31.9559375 -49.828125 32.54296875 C-60.40381683 39.49802454 -68.20513763 50.35848384 -70.90234375 62.81640625 C-71.14650095 66.20908157 -71.13343835 69.60329721 -71.15234375 73.00390625 C-71.17296875 73.91205078 -71.19359375 74.82019531 -71.21484375 75.75585938 C-71.25056796 81.99419976 -70.25860428 87.04920527 -67.90234375 92.81640625 C-67.62269775 93.50968018 -67.34305176 94.2029541 -67.05493164 94.91723633 C-61.87892999 107.14300098 -50.79031036 114.89890979 -39.04296875 120.0546875 C-34.79310688 121.56695586 -30.86586975 121.92470048 -26.375 121.80859375 C-25.33537109 121.79183594 -24.29574219 121.77507812 -23.22460938 121.7578125 C-21.05516349 121.71361768 -18.88586323 121.66156073 -16.71679688 121.6015625 C-11.03080855 121.52410631 -6.7580257 121.46820726 -1.90234375 124.81640625 C2.34891279 129.41235927 3.6147119 133.30893166 3.484375 139.46484375 C2.91288794 142.93994691 1.6364905 144.902572 -0.8359375 147.375 C-10.33916561 154.00390581 -25.19373597 152.96557542 -36.20703125 151.1953125 C-50.78728191 148.40104249 -63.96866942 141.87613042 -74.90234375 131.81640625 C-75.7428125 131.06746094 -76.58328125 130.31851563 -77.44921875 129.546875 C-87.52492573 120.09708315 -93.65385237 108.86764303 -97.90234375 95.81640625 C-98.22203125 94.86378906 -98.54171875 93.91117187 -98.87109375 92.9296875 C-104.59777031 73.49610454 -100.16908057 52.82413603 -91.15234375 35.19140625 C-80.2181691 16.07047647 -62.65326196 3.45057261 -41.70703125 -2.4921875 C-40.31871094 -2.83443359 -40.31871094 -2.83443359 -38.90234375 -3.18359375 C-38.14179688 -3.37566406 -37.38125 -3.56773437 -36.59765625 -3.765625 C-25.51967269 -5.4835152 -9.73211269 -6.0550927 0 0 Z " fill="#FDDBB8" transform="translate(169.90234375,238.18359375)"/>
<path d="M0 0 C2.01215904 1.55897007 3.38277597 3.0054237 5 5 C5.495 5.495 5.495 5.495 6 6 C6.5909343 10.60153759 6.43208581 14.1192097 4.375 18.3125 C0.83823741 22.31462608 -1.53805359 24.71919389 -6.91748047 25.33276367 C-11.70952137 25.4760738 -16.491717 25.44899006 -21.28515625 25.40039062 C-34.48713647 25.52118377 -45.71008404 30.20086656 -55.37890625 39.21875 C-60.84006626 44.90483423 -64.32710708 50.59900658 -67 58 C-67.36738281 58.98033203 -67.36738281 58.98033203 -67.7421875 59.98046875 C-70.57342296 69.07532785 -69.86338608 79.99843573 -67 89 C-66.63261719 90.19689453 -66.63261719 90.19689453 -66.2578125 91.41796875 C-61.93898877 103.74381524 -52.85452958 112.34327331 -41.4375 118.34765625 C-35.85322382 120.91017772 -31.39180833 122.14731009 -25.203125 121.921875 C-24.0790625 121.89609375 -22.955 121.8703125 -21.796875 121.84375 C-19.44743839 121.78165035 -17.09836243 121.70372885 -14.75 121.609375 C-7.55016871 121.47787123 -2.45937605 122.02600151 3 127 C5.70052583 130.6007011 6.20143717 133.18824194 5.875 137.5625 C5.26080605 141.33631027 4.58993617 144.07587852 2 147 C-8.49325023 153.84847084 -22.91552554 153.47988666 -34.875 151.1640625 C-55.96976065 146.37794596 -73.90507792 134.72691785 -86.23046875 116.74609375 C-91.4607407 108.36151359 -94.52002216 99.52609513 -97 90 C-97.30550781 88.84371094 -97.30550781 88.84371094 -97.6171875 87.6640625 C-100.71805132 66.08458166 -96.16574171 46.02874976 -84 28 C-81.1940594 24.45403112 -78.19342603 21.19884781 -75 18 C-74.31292969 17.30132812 -73.62585938 16.60265625 -72.91796875 15.8828125 C-63.28900173 6.70045806 -51.83774267 1.13570014 -39 -2 C-38.32066406 -2.17515137 -37.64132812 -2.35030273 -36.94140625 -2.53076172 C-25.23054011 -5.38962081 -10.73628668 -6.20318786 0 0 Z " fill="#FDDBB8" transform="translate(315,238)"/>
<path d="M0 0 C6.45579992 3.83061987 9.54597284 9.37622932 11.5625 16.375 C11.94002342 20.1169281 11.94002342 20.1169281 11.94345093 24.04077148 C11.9481309 24.76883468 11.95281087 25.49689787 11.95763266 26.24702358 C11.96950814 28.66357088 11.96015512 31.0795432 11.95068359 33.49609375 C11.95475262 35.23796924 11.96009636 36.97984215 11.96661377 38.72171021 C11.9802538 43.43656405 11.97500242 48.15122026 11.96547651 52.86607742 C11.95786274 57.80842864 11.96493029 62.75076333 11.96963501 67.69311523 C11.97508756 75.99173001 11.96791409 84.2902646 11.95361328 92.58886719 C11.93728775 102.17286449 11.94257661 111.7566703 11.9590925 121.34066296 C11.97272163 129.58038817 11.97462004 137.82005586 11.96677649 146.0597887 C11.96210783 150.97616017 11.96145292 155.89244174 11.97138596 160.80880737 C11.98007411 165.43163865 11.97399998 170.05422386 11.95670319 174.67702866 C11.95274821 176.37008125 11.95385539 178.06315467 11.96049118 179.75619888 C11.96873624 182.07415171 11.95835035 184.39132485 11.94345093 186.70922852 C11.94231985 188.00409683 11.94118877 189.29896515 11.94002342 190.6330719 C11.30039906 196.97288617 9.25351781 202.9245472 4.5625 207.375 C-1.97488901 211.71726573 -7.60889472 213.3938996 -15.4375 212.375 C-18.94191638 211.25992689 -22.11593354 209.69202821 -25.375 208 C-26.2839502 207.54737793 -27.19290039 207.09475586 -28.12939453 206.62841797 C-30.91134302 205.23382077 -33.67614625 203.80988474 -36.4375 202.375 C-37.24429199 201.95863281 -38.05108398 201.54226563 -38.88232422 201.11328125 C-42.75470307 199.10940423 -46.61130086 197.07796193 -50.45703125 195.0234375 C-54.08679245 193.08530837 -57.73187736 191.17947749 -61.38671875 189.2890625 C-62.91063232 188.49991455 -62.91063232 188.49991455 -64.46533203 187.69482422 C-66.42479234 186.68120155 -68.38532978 185.66965718 -70.34716797 184.66064453 C-87.51551831 175.75797254 -87.51551831 175.75797254 -90.4375 171.375 C-90.27457751 168.19801148 -89.59731816 166.59992926 -87.75 164 C-85.4375 162.375 -85.4375 162.375 -82.68432617 162.58422852 C-79.15709166 163.44329405 -76.38655836 164.71162823 -73.17578125 166.40234375 C-72.59199203 166.70679916 -72.00820282 167.01125458 -71.40672302 167.32493591 C-69.51690037 168.31292398 -67.63350058 169.31252049 -65.75 170.3125 C-64.43886414 171.00090146 -63.1273375 171.68855911 -61.81542969 172.37548828 C-58.59547747 174.06370273 -55.38040428 175.76096543 -52.16680908 177.46124268 C-49.74838041 178.73912697 -47.32555776 180.00856183 -44.90234375 181.27734375 C-43.70158203 181.90709106 -43.70158203 181.90709106 -42.4765625 182.54956055 C-40.96523524 183.34213693 -39.4535238 184.13398124 -37.94140625 184.92504883 C-34.1923009 186.8942464 -30.47490905 188.90585788 -26.78515625 190.984375 C-26.02299805 191.4067041 -25.26083984 191.8290332 -24.47558594 192.26416016 C-23.04774167 193.0570241 -21.62701865 193.86293224 -20.21582031 194.68505859 C-15.40198424 197.33834456 -11.93962581 198.01410648 -6.4375 197.375 C-4.59372337 196.36419681 -4.59372337 196.36419681 -3.4375 194.375 C-2.97888107 191.10980167 -2.97888107 191.10980167 -3.04981995 187.28358459 C-3.04443441 186.55697126 -3.03904887 185.83035793 -3.03350013 185.08172601 C-3.01916145 182.64033197 -3.02633859 180.19947562 -3.03344727 177.75805664 C-3.02774676 176.01042747 -3.02078375 174.26280203 -3.01264954 172.5151825 C-2.99466737 167.76312357 -2.99589601 163.01124877 -3.00159192 158.259166 C-3.00467656 154.29528034 -2.9985994 150.33143042 -2.99255317 146.36754984 C-2.97849288 137.01787098 -2.98008167 127.66828346 -2.99145508 118.31860352 C-3.00293752 108.66585903 -2.98886192 99.01339233 -2.9620586 89.36068445 C-2.93992276 81.07950602 -2.93325945 72.79841492 -2.93913502 64.51720899 C-2.94251091 59.56843793 -2.94004771 54.61984496 -2.92288399 49.67109871 C-2.90745063 45.01792534 -2.91133008 40.36516438 -2.93018913 35.71200752 C-2.93388508 34.00276266 -2.93073736 32.29348749 -2.92030334 30.58427048 C-2.90715975 28.25350044 -2.91858026 25.92410906 -2.93629456 23.59339905 C-2.93650384 22.28834947 -2.93671312 20.98329988 -2.93692875 19.63870335 C-3.52090467 15.83120511 -4.3838354 14.64733782 -7.4375 12.375 C-13.59203081 10.98976572 -18.84012996 14.8333282 -24.0625 17.6875 C-25.07578369 18.22858398 -26.08906738 18.76966797 -27.13305664 19.32714844 C-34.5727925 23.3143592 -41.96084584 27.39794118 -49.34130859 31.49365234 C-56.92793141 35.68871652 -64.65471894 39.56007784 -72.4375 43.375 C-73.13520508 43.7354541 -73.83291016 44.0959082 -74.55175781 44.46728516 C-75.25655273 44.82999512 -75.96134766 45.19270508 -76.6875 45.56640625 C-77.326875 45.89970947 -77.96625 46.2330127 -78.625 46.57641602 C-81.41135325 47.80407785 -83.46070842 47.91623483 -86.4375 47.375 C-88.875 45.75 -88.875 45.75 -90.4375 43.375 C-90.5 40.375 -90.5 40.375 -89.4375 37.375 C-85.56633185 33.77754159 -81.20095029 31.52884821 -76.5234375 29.1796875 C-75.76007584 28.79037552 -74.99671417 28.40106354 -74.21022034 27.99995422 C-71.74688359 26.74484224 -69.27971606 25.4974661 -66.8125 24.25 C-64.27875946 22.96107082 -61.74605691 21.67011836 -59.21342468 20.37901306 C-57.55466433 19.53353122 -55.8955787 18.68868721 -54.23616028 17.84449768 C-48.25563089 14.80046513 -42.30390425 11.70599173 -36.375 8.5625 C-35.28602417 7.99208984 -35.28602417 7.99208984 -34.17504883 7.41015625 C-31.10778354 5.8031989 -28.07707633 4.16886442 -25.0703125 2.44921875 C-16.89650436 -2.07445369 -8.87726037 -3.93064437 0 0 Z " fill="#F5821A" transform="translate(493.4375,206.625)"/>
<path d="M0 0 C9.84150612 5.96586875 16.59514638 14.43757511 19.6484375 25.60546875 C20.82964593 37.26834777 19.55346301 46.55824843 12.734375 56.35546875 C6.75571973 63.66029846 -0.4716074 67.64548372 -9.3515625 70.60546875 C-22.04859223 71.432063 -31.53883231 70.94520085 -41.6015625 62.41796875 C-48.58956927 55.73761008 -54.15421939 48.37882891 -54.6875 38.43359375 C-54.95390314 25.17391723 -53.23595496 16.75304047 -43.7890625 6.87109375 C-31.67485242 -4.38890921 -15.07677049 -7.37316036 0 0 Z " fill="#F5821A" transform="translate(286.3515625,66.39453125)"/>
<path d="M0 0 C7.42282213 4.22043283 12.74904084 9.96672171 15.89453125 17.9609375 C18.26358307 26.96610523 16.99036364 34.71552374 12.46484375 42.765625 C8.40102002 48.60685008 2.94336692 53.97821646 -4.015625 56.09375 C-12.74360228 57.5577978 -21.44263752 57.78033867 -29.22265625 53.171875 C-36.93736225 47.3484285 -42.3339793 39.90754125 -43.77734375 30.21875 C-44.17233867 21.24446537 -41.24563182 13.40466173 -35.54296875 6.546875 C-25.81171842 -2.91356131 -12.48594223 -5.81731399 0 0 Z " fill="#F5821A" transform="translate(121.4375,92.5)"/>
<path d="M0 0 C5.21584174 3.57633448 9.20349853 8.41796757 11.19140625 14.48046875 C12.55396153 22.12512099 12.37673821 28.95986511 8.1171875 35.58984375 C3.99984155 40.81411436 0.03300688 43.81286233 -6.4375 45.5625 C-13.77932693 46.37163406 -20.66957881 46.7329961 -26.7578125 42.12109375 C-32.18427063 37.08584539 -35.99992732 32.67568319 -36.80859375 25.07421875 C-36.94176464 17.40514224 -36.96317203 11.40749478 -31.4375 5.5625 C-23.15494833 -3.00897789 -10.87310082 -5.9382593 0 0 Z " fill="#FCFCFD" transform="translate(281.4375,78.4375)"/>
<path d="M0 0 C4.19250371 2.9339805 7.03303979 5.89670639 8.62109375 10.859375 C9.17946763 16.72230074 8.58560747 20.62206743 5.62109375 25.859375 C1.33291293 30.28477761 -2.01300605 32.02734502 -8.12890625 32.171875 C-13.42987505 32.10220874 -16.45424756 31.6883103 -20.37890625 27.859375 C-24.23159836 23.30806138 -26.24503769 19.13275611 -25.859375 13.09765625 C-24.71207609 7.75292231 -21.75651735 3.45152961 -17.25390625 0.359375 C-11.83643756 -2.26083861 -5.45500148 -2.61553437 0 0 Z " fill="#FAFBFD" transform="translate(116.37890625,104.140625)"/>
</svg>
